<svg version="1.1" xmlns="http://www.w3.org/2000/svg" xmlns:xlink="http://www.w3.org/1999/xlink">
  <defs>
    <g id="northern">
      <path d=" M 16 6 L 12 2 L 8 6" /><line x1="12" y1="2" x2="12" y2="22" />
    </g>
    <g id="north-eastern">
      <path d=" M 15 2 L 22 2 L 22 9" /><line x1="2" y1="22" x2="22" y2="2" />
    </g>
    <g id="eastern">
      <path d=" M 18 16 L 22 12 L 18 8" /><line x1="2" y1="12" x2="22" y2="12" />
    </g>
    <g id="south-eastern">
      <path d=" M 15 22 L 22 22 L 22 15" /><line x1="2" y1="2" x2="22" y2="22" />
    </g>
    <g id="southern">
      <path d=" M 8 18 L 12 22 L 16 18" /><line x1="12" y1="2" x2="12" y2="22" />
    </g>
    <g id="south-western">
      <path d=" M 9 22 L 2 22 L 2 15" /><line x1="22" y1="2" x2="2" y2="22" />
    </g>
    <g id="western">
      <path d=" M 6 16 L 2 12 L 6 8" /><line x1="22" y1="12" x2="2" y2="12" />
    </g>
    <g id="north-western">
      <path d=" M 9 2 L 2 2 L 2 9" /><line x1="22" y1="22" x2="2" y2="2" />
    </g>
    <g id="upper">
      <path d=" M 9.5 9 C 9.5 7.62 10.62 6.5 12 6.5 C 13.38 6.5 14.5 7.62 14.5 9 C 14.5 10.38 13.38 11.5 12 11.5 C 10.62 11.5 9.5 10.38 9.5 9 Z " /><path d=" M 10.5 9 C 10.5 8.172 11.172 7.5 12 7.5 C 12.828 7.5 13.5 8.172 13.5 9 C 13.5 9.828 12.828 10.5 12 10.5 C 11.172 10.5 10.5 9.828 10.5 9 Z " /><line x1="3" y1="18" x2="21" y2="18" /><line x1="3" y1="9" x2="21" y2="9" />
    </g>
    <g id="lower">
      <path d=" M 9.5 18 C 9.5 16.62 10.62 15.5 12 15.5 C 13.38 15.5 14.5 16.62 14.5 18 C 14.5 19.38 13.38 20.5 12 20.5 C 10.62 20.5 9.5 19.38 9.5 18 Z " /><path d=" M 10.5 18 C 10.5 17.172 11.172 16.5 12 16.5 C 12.828 16.5 13.5 17.172 13.5 18 C 13.5 18.828 12.828 19.5 12 19.5 C 11.172 19.5 10.5 18.828 10.5 18 Z " /><line x1="3" y1="18" x2="21" y2="18" /><line x1="3" y1="9" x2="21" y2="9" />
    </g>
    <g id="middle">
      <path d=" M 12 9 C 13.38 9 14.5 10.12 14.5 11.5 C 14.5 12.88 13.38 14 12 14 C 10.62 14 9.5 12.88 9.5 11.5 C 9.5 10.12 10.62 9 12 9 Z " /><path d=" M 12 10 C 12.828 10 13.5 10.672 13.5 11.5 C 13.5 12.328 12.828 13 12 13 C 11.172 13 10.5 12.328 10.5 11.5 C 10.5 10.672 11.172 10 12 10 Z " /><line x1="12" y1="3" x2="12" y2="21" /><line x1="20" y1="3" x2="20" y2="21" /><line x1="4" y1="3" x2="4" y2="21" />
    </g>
    <g id="terrace">
      <path d=" M 6 3 C 7.845 8.67 7.865 14.69 6 21" /><path d=" M 10 3 C 10.29 3.978 10.139 4.507 11 5 C 13.765 5.949 16.811 5.219 18 6 C 20.437 7.528 20.537 14.829 18 17 C 16.912 17.969 13.991 16.912 11 18 C 10.315 18.379 10.114 19.562 10 21" />
    </g>
    <g id="spur">
      <path d=" M 6 3 C 7.845 8.67 7.865 14.69 6 21" /><path d=" M 10 3 C 10.219 4.781 10.906 7.938 12 9 C 12.969 9.875 17.438 9.438 19 10 C 20.469 10.563 20.781 12.906 19 14 C 17.156 14.656 13.313 14.313 12 15 C 10.688 15.75 10.125 19.313 10 21" />
    </g>
    <g id="re-entrant">
      <path d=" M 2 20 C 4.255 20.148 6.561 19.984 7 18 C 7.476 13.089 9.086 7.053 10 6 C 11.077 4.405 12.898 4.469 14 6 C 14.889 7.095 16.266 13.068 17 18 C 17.595 20.203 19.819 20.093 22 20" />
    </g>
    <g id="earth-bank">
      <path d=" M 5 9 C 10.023 11.667 14.7 11.677 19 9" /><line x1="10" y1="11" x2="9" y2="15" /><line x1="13" y1="11" x2="14" y2="15" /><line x1="7" y1="10" x2="6" y2="12" /><line x1="17.028" y1="10.116" x2="18" y2="12" />
    </g>
    <g id="quarry">
      <path d=" M 6 21 C 1.503 14.47 3.114 4.617 12 4.611 C 20.993 4.564 23.141 13.799 18 21" /><line x1="9.652" y1="9.676" x2="6.633" y2="6.473" /><line x1="14.294" y1="9.664" x2="17.565" y2="6.281" /><line x1="17" y1="15" x2="20.234" y2="16.462" /><line x1="7" y1="15" x2="3.98" y2="16.27" />
    </g>
    <g id="earth-wall">
      <line x1="20" y1="12" x2="4" y2="12" /><line x1="10" y1="9" x2="10" y2="15" /><line x1="14" y1="9" x2="14" y2="15" /><line x1="18" y1="10" x2="18" y2="14" /><line x1="6" y1="10" x2="6" y2="14" />
    </g>
    <g id="erosion-gully">
      <path d=" M 6 21 L 12 2 L 18 21" />
    </g>
    <g id="small-erosion-gully">
      <line x1="7" y1="2" x2="22" y2="17" /><line x1="2" y1="7" x2="17" y2="22" /><circle cx="12" cy="12" r="1"></circle><circle cx="5" cy="5" r="1"></circle><circle cx="8.5" cy="8.5" r="1"></circle><circle cx="15.5" cy="15.5" r="1"></circle><circle cx="19" cy="19" r="1"></circle>
    </g>
    <g id="hill">
      <path d=" M 2 12 C 2 8.689 6.257 6 11.5 6 C 16.743 6 21 8.689 21 12 C 21 15.311 16.743 18 11.5 18 C 6.257 18 2 15.311 2 12 Z " />
    </g>
    <g id="knoll">
      <circle cx="12" cy="12" r="3"></circle><circle cx="12" cy="12" r="1"></circle>
    </g>
    <g id="saddle">
      <path d=" M 7 2 C 10.688 8.609 10.698 15.286 7 22" /><path d=" M 17 2 C 13.005 8.609 12.995 15.286 17 22" />
    </g>
    <g id="depression">
      <path d=" M 2 12 C 2 8.689 6.257 6 11.5 6 C 16.743 6 21 8.689 21 12 C 21 15.311 16.743 18 11.5 18 C 6.257 18 2 15.311 2 12 Z " /><line x1="20" y1="12" x2="16" y2="12" /><line x1="3" y1="12" x2="7" y2="12" />
    </g>
    <g id="small-depression">
      <path d=" M 5 5 Q 1.976 8.031 2 12 C 2.031 17.094 5.094 22 12 22 C 18.906 22 22.026 17.157 22 13 Q 21.969 7.906 19 5" />
    </g>
    <g id="pit">
      <path d=" M 2 3 L 12 22 L 22 4" />
    </g>
    <g id="broken-ground">
      <path d=" M 15.594 6 Q 14.555 6.939 14.532 8.149 C 14.5 9.812 15.938 11.375 17.719 11.373 C 19.579 11.371 20.827 9.995 20.906 8.149 Q 20.969 6.688 19.844 6" />
      <path d=" M 9.376 15.438 Q 8.336 16.376 8.313 17.587 C 8.281 19.25 9.719 20.813 11.5 20.811 C 13.36 20.809 14.609 19.432 14.687 17.587 Q 14.75 16.125 13.626 15.438" />
      <path d=" M 4.063 6 Q 3.024 6.939 3.001 8.149 C 2.969 9.813 4.406 11.375 6.188 11.373 C 8.048 11.371 9.296 9.995 9.375 8.149 Q 9.438 6.688 8.313 6" />
    </g>
    <g id="ant-hill">
      <line x1="12" y1="2" x2="12" y2="22" /><line x1="2" y1="12" x2="22" y2="12" /><line x1="19" y1="5" x2="5" y2="19" /><line x1="5" y1="5" x2="19" y2="19" />
    </g>
    <g id="cliff-crag">
      <path d=" M 3 15 L 3 9 L 21 9 L 21 15" /><line x1="15" y1="15" x2="15" y2="9" /><line x1="9" y1="15" x2="9" y2="9" />
    </g>
    <g id="rock-pillar">
      <path d=" M 12 2 L 7 22 L 17 22 L 12 2 Z " />
    </g>
    <g id="cave">
      <path d=" M 10.813 14.438 C 10.386 17.21 9.237 19.821 7.482 22.01" /><path d=" M 7.485 1.993 C 9.238 4.181 10.386 6.79 10.813 9.561" /><path d=" M 19 7 L 3 12 L 19 17" />
    </g>
    <g id="boulder">
      <circle cx="12" cy="12" r="5"></circle>
    </g>
    <g id="boulder-field">
      <path d=" M 5 2 L 2 8 L 8 8 L 5 2 Z " /><path d=" M 19 2 L 16 8 L 22 8 L 19 2 Z " /><path d=" M 12 9 L 9 15 L 15 15 L 12 9 Z " /><path d=" M 19 16 L 16 22 L 22 22 L 19 16 Z " /><path d=" M 5 16 L 2 22 L 8 22 L 5 16 Z " />
    </g>
    <g id="boulder-cluster">
      
    </g>
    <g id="stony-ground">
      <line x1="2" y1="22" x2="2" y2="22" /> <line x1="7" y1="22" x2="7" y2="22" /> <line x1="12" y1="22" x2="12" y2="22" /> <line x1="17" y1="22" x2="17" y2="22" /> <line x1="22" y1="22" x2="22" y2="22" /> <line x1="2" y1="17" x2="2" y2="17" /> <line x1="7" y1="17" x2="7" y2="17" /> <line x1="12" y1="17" x2="12" y2="17" /> <line x1="17" y1="17" x2="17" y2="17" /> <line x1="22" y1="17" x2="22" y2="17" /> <line x1="2" y1="12" x2="2" y2="12" /> <line x1="7" y1="12" x2="7" y2="12" /> <line x1="12" y1="12" x2="12" y2="12" /> <line x1="17" y1="12" x2="17" y2="12" /> <line x1="22" y1="12" x2="22" y2="12" /> <line x1="2" y1="7" x2="2" y2="7" /> <line x1="7" y1="7" x2="7" y2="7" /> <line x1="12" y1="7" x2="12" y2="7" /> <line x1="17" y1="7" x2="17" y2="7" /> <line x1="22" y1="7" x2="22" y2="7" /> <line x1="2" y1="2" x2="2" y2="2" /> <line x1="7" y1="2" x2="7" y2="2" /> <line x1="12" y1="2" x2="12" y2="2" /> <line x1="17" y1="2" x2="17" y2="2" /> <line x1="22" y1="2" x2="22" y2="2" />
    </g>
    <g id="narrow-passage">
      <path d=" M 19 2 L 15 2 L 15 22 L 19 22" /> <path d=" M 5 22 L 9 22 L 9 2 L 5 2" />
    </g>
    <g id="trench">
      <path d=" M 2 2 L 7 2 L 7 22 L 17 22 L 17 2 L 22 2" />
    </g>
  </defs>
</svg>